# xmcd
#
# Track frame offsets:
#	150
#	13702
#	25445
#	37380
#	56860
#	74125
#	86242
#	104405
#	119332
#	135242
#
# Disc length: 1953 seconds
#
# Revision: 0
# Processed by: cddbd v1.5.2PL0 Copyright (c) Steve Scherf et al.
# Submitted via: EasyCDDAExtractor 10.5.1.1
#
DISCID=98079f0a
DTITLE=The Inmans - Watch For The Sunrise
DYEAR=1998
DGENRE=Gospel
TTITLE0=Amazing To me
TTITLE1=Latter Rain
TTITLE2=Here I Am
TTITLE3=Eating From The Table
TTITLE4=It Wont Be Long
TTITLE5=Oh, What A Day
TTITLE6=Chances
TTITLE7=Holding On
TTITLE8=Watch For The Sunrise
TTITLE9=My Witness
EXTD=
EXTT0=
EXTT1=
EXTT2=
EXTT3=
EXTT4=
EXTT5=
EXTT6=
EXTT7=
EXTT8=
EXTT9=
PLAYORDER=
